<mxfile host="65bd71144e">
    <diagram name="第 1 页" id="qyrXyDJDdjx539UIhSgD">
        <mxGraphModel dx="1000" dy="362" grid="1" gridSize="10" guides="1" tooltips="1" connect="1" arrows="1" fold="1" page="1" pageScale="1" pageWidth="827" pageHeight="1169" math="0" shadow="0">
            <root>
                <mxCell id="0"/>
                <mxCell id="1" parent="0"/>
                <mxCell id="cmlbz_5IXXdnK90MH5H0-1" value="add" style="rounded=0;whiteSpace=wrap;html=1;" parent="1" vertex="1">
                    <mxGeometry x="280" y="240" width="80" height="20" as="geometry"/>
                </mxCell>
                <mxCell id="cmlbz_5IXXdnK90MH5H0-2" value="sub" style="rounded=0;whiteSpace=wrap;html=1;" parent="1" vertex="1">
                    <mxGeometry x="280" y="260" width="80" height="20" as="geometry"/>
                </mxCell>
                <mxCell id="cmlbz_5IXXdnK90MH5H0-3" value="load" style="rounded=0;whiteSpace=wrap;html=1;" parent="1" vertex="1">
                    <mxGeometry x="280" y="279" width="80" height="20" as="geometry"/>
                </mxCell>
                <mxCell id="cmlbz_5IXXdnK90MH5H0-6" value="" style="rounded=0;whiteSpace=wrap;html=1;" parent="1" vertex="1">
                    <mxGeometry x="280" y="299" width="80" height="20" as="geometry"/>
                </mxCell>
                <mxCell id="cmlbz_5IXXdnK90MH5H0-7" value="" style="rounded=0;whiteSpace=wrap;html=1;" parent="1" vertex="1">
                    <mxGeometry x="280" y="318" width="80" height="20" as="geometry"/>
                </mxCell>
                <mxCell id="cmlbz_5IXXdnK90MH5H0-8" value="" style="rounded=0;whiteSpace=wrap;html=1;" parent="1" vertex="1">
                    <mxGeometry x="280" y="338" width="80" height="20" as="geometry"/>
                </mxCell>
                <mxCell id="cmlbz_5IXXdnK90MH5H0-10" value="lbu" style="rounded=0;whiteSpace=wrap;html=1;fillColor=#d5e8d4;strokeColor=#82b366;" parent="1" vertex="1">
                    <mxGeometry x="280" y="358" width="80" height="20" as="geometry"/>
                </mxCell>
                <mxCell id="cmlbz_5IXXdnK90MH5H0-11" value="" style="rounded=0;whiteSpace=wrap;html=1;fillColor=#d5e8d4;strokeColor=#82b366;" parent="1" vertex="1">
                    <mxGeometry x="280" y="377" width="80" height="20" as="geometry"/>
                </mxCell>
                <mxCell id="cmlbz_5IXXdnK90MH5H0-12" value="" style="rounded=0;whiteSpace=wrap;html=1;fillColor=#d5e8d4;strokeColor=#82b366;" parent="1" vertex="1">
                    <mxGeometry x="280" y="397" width="80" height="20" as="geometry"/>
                </mxCell>
                <mxCell id="cmlbz_5IXXdnK90MH5H0-18" style="edgeStyle=orthogonalEdgeStyle;rounded=0;orthogonalLoop=1;jettySize=auto;html=1;entryX=0;entryY=0.5;entryDx=0;entryDy=0;" parent="1" target="cmlbz_5IXXdnK90MH5H0-1" edge="1">
                    <mxGeometry relative="1" as="geometry">
                        <mxPoint x="200" y="250" as="sourcePoint"/>
                    </mxGeometry>
                </mxCell>
                <mxCell id="cmlbz_5IXXdnK90MH5H0-19" style="edgeStyle=orthogonalEdgeStyle;rounded=0;orthogonalLoop=1;jettySize=auto;html=1;entryX=0;entryY=0.5;entryDx=0;entryDy=0;" parent="1" target="cmlbz_5IXXdnK90MH5H0-10" edge="1">
                    <mxGeometry relative="1" as="geometry">
                        <mxPoint x="200" y="368" as="sourcePoint"/>
                    </mxGeometry>
                </mxCell>
                <mxCell id="cmlbz_5IXXdnK90MH5H0-20" value="add" style="rounded=0;whiteSpace=wrap;html=1;" parent="1" vertex="1">
                    <mxGeometry x="120" y="240" width="80" height="20" as="geometry"/>
                </mxCell>
                <mxCell id="cmlbz_5IXXdnK90MH5H0-21" value="lbu" style="rounded=0;whiteSpace=wrap;html=1;" parent="1" vertex="1">
                    <mxGeometry x="120" y="357" width="80" height="20" as="geometry"/>
                </mxCell>
                <mxCell id="cmlbz_5IXXdnK90MH5H0-22" value="add" style="rounded=0;whiteSpace=wrap;html=1;" parent="1" vertex="1">
                    <mxGeometry x="120" y="329" width="80" height="20" as="geometry"/>
                </mxCell>
                <mxCell id="cmlbz_5IXXdnK90MH5H0-25" value="&lt;div style=&quot;font-family: &amp;quot;Droid Sans Mono&amp;quot;, &amp;quot;monospace&amp;quot;, monospace; font-size: 14px; line-height: 19px;&quot;&gt;&lt;span style=&quot;background-color: rgb(255, 255, 255);&quot;&gt;x86微码&lt;/span&gt;&lt;/div&gt;&lt;div style=&quot;font-family: &amp;quot;Droid Sans Mono&amp;quot;, &amp;quot;monospace&amp;quot;, monospace; font-size: 14px; line-height: 19px;&quot;&gt;&lt;span style=&quot;background-color: rgb(255, 255, 255);&quot;&gt;（基础）&lt;/span&gt;&lt;/div&gt;" style="text;html=1;strokeColor=none;fillColor=none;align=center;verticalAlign=middle;whiteSpace=wrap;rounded=0;" parent="1" vertex="1">
                    <mxGeometry x="390" y="280" width="60" height="30" as="geometry"/>
                </mxCell>
                <mxCell id="cmlbz_5IXXdnK90MH5H0-26" value="&lt;span style=&quot;color: rgb(0, 0, 0); font-family: &amp;quot;Droid Sans Mono&amp;quot;, &amp;quot;monospace&amp;quot;, monospace; font-size: 14px; font-style: normal; font-variant-ligatures: normal; font-variant-caps: normal; font-weight: 400; letter-spacing: normal; orphans: 2; text-align: center; text-indent: 0px; text-transform: none; widows: 2; word-spacing: 0px; -webkit-text-stroke-width: 0px; background-color: rgb(255, 255, 255); text-decoration-thickness: initial; text-decoration-style: initial; text-decoration-color: initial; float: none; display: inline !important;&quot;&gt;RISCV微码&lt;br&gt;（扩充）&lt;br&gt;&lt;/span&gt;" style="text;whiteSpace=wrap;html=1;" parent="1" vertex="1">
                    <mxGeometry x="390" y="367" width="80" height="40" as="geometry"/>
                </mxCell>
                <mxCell id="cmlbz_5IXXdnK90MH5H0-27" value="&lt;div style=&quot;line-height: 19px;&quot;&gt;&lt;font style=&quot;font-size: 14px;&quot; face=&quot;Droid Sans Mono, monospace, monospace&quot;&gt;x86指令&lt;/font&gt;&lt;br&gt;&lt;/div&gt;" style="text;html=1;strokeColor=none;fillColor=none;align=center;verticalAlign=middle;whiteSpace=wrap;rounded=0;" parent="1" vertex="1">
                    <mxGeometry x="10" y="240" width="70" height="31" as="geometry"/>
                </mxCell>
                <mxCell id="cmlbz_5IXXdnK90MH5H0-28" value="&lt;div style=&quot;line-height: 19px;&quot;&gt;&lt;font style=&quot;font-size: 14px;&quot; face=&quot;Droid Sans Mono, monospace, monospace&quot;&gt;RISCV指令&lt;/font&gt;&lt;br&gt;&lt;/div&gt;" style="text;html=1;strokeColor=none;fillColor=none;align=center;verticalAlign=middle;whiteSpace=wrap;rounded=0;" parent="1" vertex="1">
                    <mxGeometry x="10" y="336" width="80" height="31" as="geometry"/>
                </mxCell>
                <mxCell id="cmlbz_5IXXdnK90MH5H0-29" value="" style="endArrow=classic;html=1;rounded=0;exitX=1;exitY=0.5;exitDx=0;exitDy=0;" parent="1" source="cmlbz_5IXXdnK90MH5H0-22" edge="1">
                    <mxGeometry width="50" height="50" relative="1" as="geometry">
                        <mxPoint x="390" y="360" as="sourcePoint"/>
                        <mxPoint x="280" y="250" as="targetPoint"/>
                    </mxGeometry>
                </mxCell>
                <mxCell id="cmlbz_5IXXdnK90MH5H0-30" value="&lt;font style=&quot;font-size: 14px;&quot;&gt;翻译为&lt;/font&gt;" style="text;html=1;strokeColor=none;fillColor=none;align=center;verticalAlign=middle;whiteSpace=wrap;rounded=0;" parent="1" vertex="1">
                    <mxGeometry x="210" y="200" width="60" height="30" as="geometry"/>
                </mxCell>
                <mxCell id="2" value="" style="shape=curlyBracket;whiteSpace=wrap;html=1;rounded=1;flipH=1;labelPosition=right;verticalLabelPosition=middle;align=left;verticalAlign=middle;" parent="1" vertex="1">
                    <mxGeometry x="460" y="240" width="20" height="180" as="geometry"/>
                </mxCell>
                <mxCell id="3" value="融合微码" style="text;html=1;strokeColor=none;fillColor=none;align=center;verticalAlign=middle;whiteSpace=wrap;rounded=0;" parent="1" vertex="1">
                    <mxGeometry x="480" y="315" width="60" height="30" as="geometry"/>
                </mxCell>
            </root>
        </mxGraphModel>
    </diagram>
</mxfile>